<mxfile host="app.diagrams.net" modified="2024-05-16T01:04:05.869Z" agent="Mozilla/5.0 (Macintosh; Intel Mac OS X 10_15_7) AppleWebKit/537.36 (KHTML, like Gecko) Chrome/124.0.0.0 Safari/537.36" version="24.4.0" etag="BD_CBjtvdF4vOECPE4YX" type="github">
  <diagram name="第 1 页" id="5U7S3Ifkv0Z8sTCKRt3u">
    <mxGraphModel>
      <root>
        <mxCell id="0" />
        <mxCell id="1" parent="0" />
      </root>
    </mxGraphModel>
  </diagram>
</mxfile>
